<svg width="58" height="58" viewBox="0 0 58 58" fill="none" xmlns="http://www.w3.org/2000/svg">
<path d="M58 29C58 12.9837 45.0163 0 29 0C12.9837 0 0 12.9837 0 29C0 45.0163 12.9837 58 29 58C45.0163 58 58 45.0163 58 29Z" fill="#737DF7"/>
<path d="M57 29C57 13.536 44.464 1 29 1C13.536 1 1 13.536 1 29C1 44.464 13.536 57 29 57C44.464 57 57 44.464 57 29Z" fill="#737DF7" stroke="#FCE893" stroke-width="2"/>
<path d="M20.6 28.3C18.668 28.3 17.1 29.868 17.1 31.8C17.1 33.732 18.668 35.3 20.6 35.3C22.532 35.3 24.1 33.732 24.1 31.8C24.1 29.868 22.532 28.3 20.6 28.3ZM37.4 28.3C35.468 28.3 33.9 29.868 33.9 31.8C33.9 33.732 35.468 35.3 37.4 35.3C39.332 35.3 40.9 33.732 40.9 31.8C40.9 29.868 39.332 28.3 37.4 28.3ZM29 1C13.544 1 1 13.544 1 29C1 44.456 13.544 57 29 57C44.456 57 57 44.456 57 29C57 13.544 44.456 1 29 1ZM29 51.4C16.652 51.4 6.6 41.348 6.6 29C6.6 28.188 6.656 27.376 6.74 26.592C13.348 23.652 18.584 18.248 21.328 11.556C26.396 18.724 34.74 23.4 44.176 23.4C46.36 23.4 48.46 23.148 50.476 22.672C51.064 24.66 51.4 26.788 51.4 29C51.4 41.348 41.348 51.4 29 51.4Z" fill="#3A48CE"/>
</svg>
