<svg width="60" height="60" viewBox="0 0 52 52" fill="none" xmlns="http://www.w3.org/2000/svg">
<path d="M48 0H0V48H48V0Z" fill="#3c42d6"/>
<path fill-rule="evenodd" clip-rule="evenodd" d="M5.3822 26.86C3.56641 33.6325 7.58455 40.5946 14.357 42.4104C21.1294 44.2262 28.0915 40.208 29.9073 33.4356C31.7231 26.6632 27.705 19.7011 20.9325 17.8853C14.1601 16.0695 7.19799 20.0876 5.3822 26.86ZM14.098 43.3764C6.79204 41.4175 2.45736 33.907 4.4162 26.601C6.37504 19.2951 13.8856 14.9604 21.1915 16.9193C28.4975 18.8781 32.8321 26.3887 30.8733 33.6946C28.9145 41.0005 21.4039 45.3352 14.098 43.3764Z" fill="#FFFFFF"/>
<path fill-rule="evenodd" clip-rule="evenodd" d="M12.0985 28.6869C11.2761 31.7543 13.096 34.9077 16.1635 35.7302C19.231 36.5526 22.3844 34.7327 23.2068 31.6652C24.0293 28.5977 22.2093 25.4443 19.1418 24.6219C16.0743 23.7994 12.9209 25.6194 12.0985 28.6869ZM15.9045 36.6962C12.3035 35.7307 10.167 32.0289 11.1325 28.4279C12.098 24.8269 15.7998 22.6904 19.4008 23.6559C23.0018 24.6213 25.1383 28.3232 24.1728 31.9242C23.2073 35.5252 19.5055 37.6617 15.9045 36.6962Z" fill="#FFFFFF"/>
<path fill-rule="evenodd" clip-rule="evenodd" d="M10.0901 19.3966L14.2872 24.8822L13.493 25.4899L9.29584 20.0043L10.0901 19.3966Z" fill="#FFFFFF"/>
<path d="M35 13H18V30H35V13Z" fill="#3c42d6"/>
<path fill-rule="evenodd" clip-rule="evenodd" d="M19.162 28.765L21.5733 22.8135L40.4816 3.90524L43.7071 7.13075L24.811 26.0269L19.162 28.765ZM21.0649 26.7313L24.2231 25.2005L42.2929 7.13075L40.4816 5.31946L22.424 23.3771L21.0649 26.7313Z" fill="#FFFFFF"/>
</svg>
