<svg width="60" height="60" viewBox="0 0 52 52" fill="none" xmlns="http://www.w3.org/2000/svg">
<path fill-rule="evenodd" clip-rule="evenodd" d="M20 39C30.4934 39 39 30.4934 39 20C39 14.9331 37.0167 10.3295 33.784 6.9231L28.1237 12.5834C29.9103 14.5391 31 17.1423 31 20C31 26.0751 26.0751 31 20 31C13.9249 31 9 26.0751 9 20C9 13.9249 13.9249 9 20 9C22.8577 9 25.4608 10.0897 27.4166 11.8763L33.0768 6.216C29.6705 2.98335 25.0669 1 20 1C9.5066 1 1 9.5066 1 20C1 30.4934 9.5066 39 20 39ZM20 40C31.0457 40 40 31.0457 40 20C40 8.9543 31.0457 0 20 0C8.9543 0 0 8.9543 0 20C0 31.0457 8.9543 40 20 40ZM20 30C25.5228 30 30 25.5228 30 20C30 14.4771 25.5228 10 20 10C14.4772 10 10 14.4771 10 20C10 25.5228 14.4772 30 20 30Z" fill="#FFFFFF"/>
</svg>
