<svg width="52" height="52" viewBox="0 0 48 48" fill="none" xmlns="http://www.w3.org/2000/svg">
<path d="M48 0H0V48H48V0Z" fill="#3c42d6"/>
<path fill-rule="evenodd" clip-rule="evenodd" d="M14.2066 6.5H33.7934L43.5728 24L33.7934 41.5H14.2066L4.42723 24L14.2066 6.5ZM14.7934 7.5L5.57278 24L14.7934 40.5H33.2066L42.4272 24L33.2066 7.5H14.7934ZM27.6367 14.8981C25.8997 14.1548 23.9893 13.9606 22.1464 14.3393C20.3034 14.7181 18.6082 15.6534 17.2761 17.0297C15.9438 18.4061 15.0347 20.1618 14.6663 22.0755C14.2979 23.9892 14.4871 25.9727 15.2094 27.7744C15.9318 29.5761 17.1539 31.1133 18.7188 32.1936C20.2836 33.2738 22.1214 33.8493 24 33.8493C26.5188 33.8493 28.9378 32.8157 30.724 30.9703C32.5107 29.1244 33.5172 26.6174 33.5172 24C33.5172 22.0484 32.957 20.1419 31.9092 18.5218C30.8614 16.9017 29.3739 15.6416 27.6367 14.8981ZM21.9451 13.3598C23.9885 12.9399 26.1063 13.1555 28.0301 13.9788C29.9537 14.802 31.5952 16.1949 32.7489 17.9787C33.9024 19.7624 34.5172 21.8578 34.5172 24C34.5172 26.8722 33.413 29.63 31.4425 31.6658C29.4715 33.7022 26.7947 34.8493 24 34.8493C21.9162 34.8493 19.8806 34.2108 18.1507 33.0166C16.421 31.8225 15.0753 30.1271 14.2813 28.1466C13.4873 26.1661 13.2798 23.9878 13.6843 21.8864C14.0889 19.785 15.088 17.8525 16.5576 16.3342C18.0273 14.8157 19.9018 13.7797 21.9451 13.3598Z" fill="#a8b1f9"/>
</svg>
